<?xml version="1.0" encoding="UTF-8"?>
<svg id="b" data-name="Layer 2" xmlns="http://www.w3.org/2000/svg" viewBox="0 0 384 391.62">
  <g id="c" data-name="Layer 1">
    <g>
      <path d="m291.55,216.79c29.27-13.12,58.54-26.25,87.81-39.37,1.54,2.34,3.09,4.67,4.63,7.01-15.15,43.34-40.33,79.9-76.7,111.17,18.4-2.36,36.81-4.72,60.88-7.8-39.89,61.12-86.88,99.17-157.23,103.27-85.98,5.02-153.86-23.65-200.46-104.18,20.34,2.08,37.17,3.8,56.54,5.77C15.88,229.94,4.49,210.8,0,175.12c29.74,13.56,56.02,25.53,82.28,37.51,17.56,48.4,60.62,67.62,101.82,88.98,3.02-.02,6.05-.03,9.07-.05v42.48c2.22.25,4.43.49,6.65.74,30.58-42.67,61.15-85.33,91.73-128Z" style="fill: #63705e;"/>
      <path d="m184.1,301.61c-41.2-21.36-84.26-40.58-101.82-88.98-6.99-24.25-13.98-48.5-20.98-72.74l4.74-5.15c20.53,11.87,41.05,23.73,61.58,35.6.75.15,1.5.3,2.25.46-.45-.45-.9-.9-1.35-1.35-5.06-63.38,27.64-113.27,60.87-169.45,13.96,26.03,26.18,48.84,38.4,71.65-28.73,10.33-30.91,36.11-34.13,60.47-3.41,25.78-5.02,51.81-7.63,80.1-10.97-4.62-18.21-7.67-21.75-9.16,6.52,32.42,13.17,65.49,19.81,98.55Z" style="fill: #8f9e8c;"/>
      <path d="m291.55,216.79c-30.58,42.67-61.15,85.33-91.73,128-2.22-.25-4.43-.49-6.65-.74,0-14.16,0-28.32,0-42.48.53-4.5,1.26-8.99,1.55-13.5,2.45-38.56,6.12-76.55,38.82-103.91,4.61-3.86,7.84-9.38,11.71-14.13,21.38-12.03,42.76-24.06,70.05-39.42-9.08,32.92-16.42,59.55-23.76,86.19Z" style="fill: #8f9e8c;"/>
      <path d="m245.27,170.02c-3.87,4.75-7.1,10.27-11.71,14.13-32.71,27.36-36.38,65.36-38.82,103.91-.29,4.52-1.02,9-1.55,13.5-3.03.02-6.05.03-9.08.05-6.65-33.06-13.29-66.13-19.81-98.55,3.54,1.49,10.78,4.54,21.75,9.16,2.61-28.3,4.22-54.32,7.63-80.1,3.22-24.36,5.41-50.14,34.13-60.47,17.48,30.72,25.23,63.17,17.46,98.37Z" style="fill: #788973;"/>
    </g>
  </g>
</svg>