<?xml version="1.0" encoding="UTF-8"?>
<svg id="b" data-name="Layer 2" xmlns="http://www.w3.org/2000/svg" viewBox="0 0 512 512">
  <g id="c" data-name="bg">
    <rect width="512" height="512" style="fill: #62ad9d;"/>
  </g>
  <g id="d" data-name="skin outline">
    <path d="m416.76,142.04l-6-.12c.16-8.37.11-16.63-.14-24.56-.18-5.83-1.26-8.05-5.48-11.3-45.84-35.14-103.03-54.63-165.38-56.35-1.47-.04-2.05.5-2.49,1.39-19.37,38.73-55.32,60.8-113.12,69.47-.54.08-1,.46-1.21.99l-6.43,17-5.61-2.12,6.44-17.02c.98-2.55,3.24-4.38,5.92-4.78,55.71-8.35,90.23-29.39,108.65-66.22,1.57-3.13,4.43-4.8,8.03-4.7,63.62,1.76,122.02,21.67,168.87,57.59,5.68,4.38,7.58,8.24,7.82,15.87.26,8.03.31,16.4.15,24.87Z" style="fill: #b0cfb1;"/>
  </g>
  <g id="e" data-name="skin">
    <path d="m82.54,187.78c1.2,2.1,1.93,3.78,2.19,5.05,2.28,11.19,4.8,21.71,7.58,31.55-1.16,3.89-1.83,7.79-2.01,11.7-.81,16.53,6.63,26.95,22.34,31.24,1.49.4,2.51,1.77,2.46,3.31-.48,20.05,2.43,39.6,8.74,58.63,11.84,35.77,34.45,60.88,67.82,75.32,15.26,6.6,20.27,20.08,22.81,35.44,4.51,27.29,4.51,58.03-24.22,68.44-6.24,2.26-13.26,3.4-21.08,3.42l182.76.04c-21.1-.04-39.81-1.1-51.14-21.8-4.28-7.83-6.17-17.92-5.67-30.29.95-23.56,3.73-45.26,26.91-55.9,31.39-14.41,53.17-39.91,65.36-76.5,5.48-16.48,8.32-35.25,8.51-56.31.01-1.65,1.03-3.13,2.57-3.75,14.14-5.61,22.63-14.18,22.48-30.25-.01-2.46-1.21-7.44-3.6-14.95,2.42-9.14,4.75-18.65,7-28.55,1.04-4.51,3.67-8.76,7.91-12.75,1.33-1.24,2.55-3.56,2.59-5.34.19-9.04.26-17.89.21-26.56,0-1.66-1.2-3.09-2.84-3.42l-18.47-3.58c.17-8.45.12-16.69-.14-24.72-.21-6.69-1.68-9.75-6.65-13.58-48.07-36.85-106.39-55.3-167.13-56.97-2.46-.07-4.21.95-5.26,3.04-22.17,44.32-64.76,60.93-110.88,67.84-1.61.24-2.97,1.34-3.56,2.88l-6.44,17.02-36.15,8.03c-1.47.32-2.51,1.63-2.48,3.13.17,9.04.05,17.96-.35,26.75-.25,5.61,5.34,8.05,7.83,12.38Z" style="fill: #fef1c5;"/>
    <path d="m413.76,141.98c-28.25-7.52-55.77-10.46-82.56-8.82-8.83.54-17.83,2.12-27,4.74-13.46,3.83-21.28,14.82-35.75,16.64-14.1,1.76-31.18,1.84-43.66-5.22-3.82-2.17-7.56-4.42-11.2-6.77-5.48-3.53-12.7-5.91-21.68-7.12-26.07-3.53-52.14-2.85-78.21,2.05l6.44-17.02c.59-1.53,1.95-2.63,3.56-2.88,46.13-6.91,88.71-23.52,110.88-67.84,1.05-2.1,2.8-3.11,5.26-3.04,60.74,1.68,119.06,20.12,167.13,56.97,4.97,3.83,6.44,6.89,6.65,13.58.26,8.03.31,16.27.14,24.72Z" style="fill: #fef1c5;"/>
  </g>
  <g id="f" data-name="lips outline">
    <path d="m255.11,349.02c-5.37,0-10.91-.65-16.58-1.95-12.09-2.75-23.39-10.44-33.93-18.07-2.23-1.62-2.25-3.27-1.89-4.37.37-1.1,1.4-2.39,4.14-2.35.79,0,1.54.06,2.26.12,1.56.12,2.69.21,3.88-.25,5.76-2.27,11.58-4.91,17.28-7.84,7.44-3.81,15.06-3.93,22.68-.36.29.13.62.15.91.04l1.34-.49c4.39-1.62,9.37-3.44,14.69-2.22,4.88,1.12,9.4,3.29,13.78,5.38,6.29,3,12.23,5.84,18.7,5.5,2.73-.12,3.65,1.32,3.96,2.2.31.88.5,2.59-1.7,4.19-5.54,4.07-11.28,7.91-17.05,11.39-9.97,6.04-20.85,9.07-32.46,9.07Zm-41.32-20.84c8.36,5.79,17.12,11.01,26.07,13.05,16.39,3.75,31.4,1.59,44.61-6.41,3.74-2.26,7.47-4.67,11.15-7.21-5.14-1.04-9.89-3.31-14.54-5.53-4.27-2.04-8.31-3.97-12.54-4.94-3.59-.82-7.32.55-11.27,2l-1.38.5c-1.79.64-3.73.56-5.46-.24h-.02c-5.93-2.79-11.62-2.71-17.4.26-5.88,3.02-11.88,5.75-17.85,8.09-.47.18-.92.32-1.37.43Z" style="fill: #f6a785;"/>
  </g>
  <g id="g" data-name="lips">
    <path d="m254.87,316.82c4.6-1.66,9.4-3.75,14.35-2.61,11.41,2.63,21.26,11.57,33.31,10.95,1.19-.06,1.3.27.33.97-5.51,4.04-11.12,7.79-16.83,11.24-13.97,8.46-29.58,10.72-46.83,6.77-11.74-2.67-23.06-10.5-32.83-17.58-1.21-.88-1.07-1.31.43-1.28,2.57.02,4.74.64,7.27-.33,5.89-2.32,11.75-4.98,17.58-7.97,6.6-3.38,13.28-3.48,20.04-.31,1.01.46,2.15.52,3.19.14Z" style="fill: #ee5c44;"/>
  </g>
  <g id="h" data-name="lenses">
    <path d="m103.22,223.32c-4.73-11.65-7.23-24.33-7.49-38.05-.43-23.64,14.89-34.22,35.19-38.73,24.01-5.34,46.3-4.84,66.85,1.49,9.75,3,22.77,10.06,26.95,19.54,1.9,4.33,2.74,9.45,2.5,15.34-1.41,35.05-13.64,66.04-51.76,71.2-29.4,4-59.98-.62-72.25-30.78Z" style="fill: #ee5c44;"/>
    <path d="m288.59,161.22c21.41-21.32,66.12-22.28,95.6-13.73,19.27,5.59,30.52,18.26,29.87,39.42-.47,15.86-4,29.98-10.6,42.38-13.95,26.21-46.95,29.05-73.66,24.28-29.79-5.32-43.48-29.87-47.57-58.42-1.7-11.84-2.11-25.51,6.36-33.93Z" style="fill: #ee5c44;"/>
  </g>
  <g id="i" data-name="lenses outline">
    <path d="m158.4,258.33c-28.99,0-48.87-11.53-57.96-33.88h0c-4.85-11.94-7.45-25.1-7.71-39.12-.41-22.06,12.23-36.09,37.54-41.72,24.42-5.43,47.43-4.91,68.38,1.55,10.39,3.2,24.17,10.67,28.82,21.2,2.08,4.74,3.01,10.35,2.76,16.67-1.79,44.5-20.07,69.41-54.35,74.05-6.14.83-11.97,1.25-17.47,1.25Zm-52.41-36.14c9.81,24.1,33.04,33.84,69.07,28.94,30.97-4.19,47.51-27.18,49.16-68.34.22-5.41-.54-10.12-2.25-14.01-3.58-8.12-15.18-14.83-25.09-17.88-19.95-6.15-41.93-6.63-65.31-1.43-22.77,5.06-33.2,16.42-32.85,35.75.25,13.28,2.7,25.72,7.27,36.98h0Z" style="fill: #844646;"/>
    <path d="m350.56,258.47c-8.03,0-15.43-.91-21.28-1.95-19.32-3.45-43.68-16.83-50.02-60.95-1.71-11.94-2.44-26.88,7.21-36.48,21.75-21.66,67.01-23.63,98.56-14.48,21.61,6.27,32.69,20.93,32.04,42.39-.48,16.25-4.17,30.95-10.95,43.7-6.79,12.75-18.21,21.25-33.96,25.25-7.27,1.85-14.67,2.53-21.6,2.53Zm-3.47-113.02c-4.54,0-9.04.23-13.42.68-13.1,1.37-31.18,5.47-42.97,17.21-7.76,7.72-7.02,20.83-5.5,31.38,3.22,22.4,13.66,50.27,45.13,55.9,48.12,8.58,65.32-13.05,70.48-22.74,6.35-11.92,9.8-25.74,10.25-41.06.57-18.69-8.75-30.95-27.71-36.45h0c-11.13-3.23-23.83-4.92-36.26-4.92Z" style="fill: #844646;"/>
  </g>
  <g id="j" data-name="rim outline">
    <path d="m350.19,266.55c-9.23,0-18.26-1.12-26.33-2.98-25.19-5.78-43.46-24.86-50.13-52.36-1.39-5.77-2.7-11.57-3.87-17.24-2.66-12.65-6.08-18.41-18.3-16.95-7.92.94-9.93,6.94-12.31,16.7l-.24.99c-1.03,4.16-2.02,8.36-2.95,12.49-6.38,28.38-23.53,48.42-47.05,54.98-19.27,5.37-38.96,5.39-58.55.07-21.88-5.96-32.54-21.05-40.8-36.47l5.29-2.83c8.81,16.45,18.49,28.44,37.08,33.51,18.52,5.04,37.15,5.02,55.36-.06,21.32-5.95,36.92-24.36,42.8-50.52.94-4.17,1.94-8.41,2.97-12.61l.24-.98c2.14-8.79,4.81-19.74,17.43-21.24,18.3-2.19,22.44,10.04,24.88,21.68,1.16,5.62,2.45,11.35,3.83,17.05,6.11,25.21,22.75,42.67,45.64,47.92,26.19,6.02,63.07,4.06,80.78-21.24,2.46-3.52,5.38-8.77,8.68-15.61l5.4,2.61c-3.43,7.12-6.52,12.65-9.17,16.44-13.83,19.75-37.88,26.62-60.7,26.62Z" style="fill: #8c9186;"/>
    <path d="m420.26,222.95l-5.8-1.53c2.4-9.07,4.74-18.64,6.97-28.45,1.17-5.09,4.12-9.89,8.78-14.27.81-.76,1.62-2.36,1.65-3.23.19-8.94.26-17.85.21-26.47,0-.24-.18-.44-.42-.49l-18.46-3.58,1.14-5.89,18.47,3.58c3.04.6,5.25,3.27,5.27,6.34.05,8.68-.02,17.64-.21,26.64-.07,2.92-1.88,5.92-3.54,7.47-3.77,3.55-6.14,7.33-7.04,11.23-2.24,9.87-4.61,19.51-7.02,28.64Z" style="fill: #3e6f72;"/>
    <path d="m89.42,225.19c-2.78-9.86-5.35-20.55-7.63-31.77-.13-.65-.57-1.9-1.86-4.16-.69-1.21-1.8-2.33-2.97-3.53-2.43-2.48-5.46-5.56-5.25-10.48.4-8.7.51-17.63.35-26.56-.05-2.92,1.99-5.48,4.84-6.11l36.14-8.03,1.3,5.86-36.15,8.03c-.08.02-.14.08-.14.15.17,9.05.05,18.11-.35,26.93-.1,2.2,1.21,3.64,3.53,6,1.39,1.41,2.82,2.87,3.9,4.75,1.37,2.4,2.2,4.34,2.53,5.94,2.25,11.08,4.79,21.62,7.53,31.34l-5.77,1.63Z" style="fill: #3e6f72;"/>
    <path d="m253.41,158.55c-12.25,0-22.33-2.21-30.1-6.6-3.85-2.19-7.67-4.49-11.35-6.86-5.08-3.28-11.96-5.52-20.45-6.67-25.63-3.47-51.62-2.79-77.26,2.03l-1.11-5.9c26.27-4.94,52.9-5.63,79.17-2.07,9.37,1.27,17.07,3.82,22.9,7.57,3.58,2.3,7.3,4.55,11.05,6.68,9.68,5.47,23.74,7.1,41.81,4.85,7.35-.93,12.91-4.49,18.8-8.26,4.96-3.18,10.09-6.46,16.5-8.29,9.33-2.67,18.62-4.3,27.63-4.85,26.99-1.65,55.08,1.35,83.52,8.91l-1.54,5.8c-27.81-7.4-55.26-10.34-81.61-8.72-8.58.52-17.44,2.08-26.35,4.63-5.57,1.58-10.11,4.49-14.91,7.57-6.19,3.97-12.59,8.07-21.29,9.16-5.46.68-10.6,1.02-15.41,1.02Z" style="fill: #8c9186;"/>
  </g>
  <g id="k" data-name="rim">
    <path d="m413.76,141.98l18.47,3.58c1.64.32,2.83,1.75,2.84,3.42.06,8.67-.01,17.52-.21,26.56-.04,1.78-1.26,4.1-2.59,5.34-4.24,3.99-6.87,8.24-7.91,12.75-2.25,9.9-4.58,19.41-7,28.55-3.38,7.01-6.36,12.35-8.92,16.02-18.03,25.75-55.23,29.02-83.91,22.44-25.46-5.84-41.86-25.3-47.89-50.14-1.39-5.77-2.68-11.48-3.85-17.14-2.71-12.92-6.75-21.1-21.59-19.32-10.95,1.3-12.9,10.93-15.11,19.96-1.04,4.2-2.02,8.38-2.96,12.55-5.49,24.41-20.29,45.88-44.92,52.75-18.83,5.24-37.81,5.27-56.95.06-19.46-5.3-29.75-17.82-38.94-34.99-2.77-9.84-5.3-20.36-7.58-31.55-.26-1.27-.99-2.95-2.19-5.05-2.48-4.33-8.07-6.77-7.83-12.38.4-8.79.52-17.71.35-26.75-.02-1.5,1.01-2.8,2.48-3.13l36.15-8.03c26.07-4.9,52.14-5.58,78.21-2.05,8.97,1.21,16.2,3.59,21.68,7.12,3.64,2.35,7.38,4.6,11.2,6.77,12.48,7.06,29.56,6.98,43.66,5.22,14.47-1.82,22.3-12.81,35.75-16.64,9.16-2.62,18.16-4.2,27-4.74,26.79-1.64,54.31,1.3,82.56,8.82ZM103.22,223.32c12.28,30.16,42.85,34.78,72.25,30.78,38.11-5.15,50.35-36.15,51.76-71.2.23-5.89-.6-11.01-2.5-15.34-4.18-9.48-17.2-16.54-26.95-19.54-20.55-6.33-42.83-6.83-66.85-1.49-20.31,4.51-35.63,15.09-35.19,38.73.26,13.72,2.76,26.4,7.49,38.05Zm280.98-75.83c-29.48-8.55-74.2-7.6-95.6,13.73-8.47,8.43-8.05,22.09-6.36,33.93,4.1,28.55,17.78,53.1,47.57,58.42,26.71,4.76,59.71,1.93,73.66-24.28,6.6-12.39,10.13-26.52,10.6-42.38.64-21.16-10.6-33.83-29.87-39.42Z" style="fill: #1a3047;"/>
  </g>
</svg>